Coordinates
version=1
nRows=29
nColumns=24
inDegrees=yes

Units are S.I. units (second, meters, Newtons, ...)
Angles are in degrees.

endheader
time	pelvis_tilt	pelvis_list	pelvis_rotation	pelvis_tx	pelvis_ty	pelvis_tz	hip_flexion_r	hip_adduction_r	hip_rotation_r	knee_angle_r	ankle_angle_r	subtalar_angle_r	mtp_angle_r	hip_flexion_l	hip_adduction_l	hip_rotation_l	knee_angle_l	ankle_angle_l	subtalar_angle_l	mtp_angle_l	lumbar_extension	lumbar_bending	lumbar_rotation
      5.49500000	     -0.99799572	      3.30905661	      1.81249858	      0.90177148	      0.99840431	     -0.28433573	     24.58962041	     -1.05068931	      2.52147664	    -10.39272797	     13.24787154	     -1.27069835	      0.00000000	    -18.65047574	      5.88547535	      5.13162914	     -9.65346636	     15.92025744	     -2.69536135	      0.00000000	    -12.11826840	     -1.84797677	    -11.12417708
      5.50000000	     -0.97280313	      3.07783031	      1.82948735	      0.90953035	      0.99825429	     -0.28383466	     24.62167521	     -0.74201124	      2.48064017	    -11.26988363	     12.78022350	     -0.98449843	      0.00000000	    -18.55747450	      5.57047981	      4.56896519	    -10.68592431	     15.80791051	     -1.87132437	      0.00000000	    -12.05915505	     -1.55224562	    -11.03373426
      5.50500000	     -0.96270834	      2.80542841	      1.84790127	      0.91724516	      0.99820735	     -0.28333880	     24.66264628	     -0.39479371	      2.49802475	    -12.10129852	     12.19207120	     -0.87477467	      0.00000000	    -18.40363701	      5.20899805	      3.97642936	    -11.78321268	     15.63654848	     -1.07299239	      0.00000000	    -11.99699648	     -1.20868795	    -10.92109151
      5.51000000	     -0.95856221	      2.52047457	      1.84950615	      0.92491152	      0.99828452	     -0.28277448	     24.71174720	     -0.02206115	      2.58567614	    -12.90520622	     11.49271650	     -0.97774785	      0.00000000	    -18.20705631	      4.82740231	      3.32762314	    -12.92482050	     15.37871153	     -0.26517667	      0.00000000	    -11.93859782	     -0.86711589	    -10.80824723
      5.51500000	     -0.98482016	      2.16741452	      1.87928326	      0.93272442	      0.99846430	     -0.28234134	     24.76721614	      0.39409826	      2.60789054	    -13.66968815	     10.80697083	     -1.14328846	      0.00000000	    -17.96358882	      4.37003483	      2.71783088	    -14.08495917	     14.97915729	      0.42956878	      0.00000000	    -11.81147985	     -0.43040244	    -10.67625530
      5.52000000	     -0.99989685	      1.85680675	      1.89685683	      0.94037195	      0.99870782	     -0.28186269	     24.82985470	      0.78463327	      2.76644714	    -14.46189202	     10.14563573	     -1.52857208	      0.00000000	    -17.65366294	      3.94411070	      2.02013359	    -15.36686178	     14.55725473	      1.17521987	      0.00000000	    -11.73858717	     -0.04818807	    -10.55654069
      5.52500000	     -1.02320179	      1.54357485	      1.91221367	      0.94808696	      0.99902517	     -0.28143066	     24.89234031	      1.17500230	      2.90866758	    -15.25803098	      9.56585119	     -1.97493360	      0.00000000	    -17.31213635	      3.50933774	      1.33360961	    -16.67428263	     13.98114081	      1.83874173	      0.00000000	    -11.64058417	      0.34170761	    -10.43232831
      5.53000000	     -1.04199449	      1.26544937	      1.94545512	      0.95582979	      0.99940892	     -0.28102708	     24.94177558	      1.52207806	      3.01111465	    -16.06447322	      9.12406045	     -2.45183655	      0.00000000	    -16.93077567	      3.08996437	      0.63079015	    -18.04136319	     13.26068033	      2.46612915	      0.00000000	    -11.54129747	      0.68417490	    -10.31318314
      5.53500000	     -1.05594585	      1.01919558	      1.96972930	      0.96355657	      0.99980758	     -0.28064928	     24.98489725	      1.83883994	      3.10471684	    -16.88809809	      8.83256324	     -2.93401935	      0.00000000	    -16.50628394	      2.69446292	     -0.08704791	    -19.47416693	     12.41935125	      3.02611116	      0.00000000	    -11.45311082	      0.99753557	    -10.20336603
      5.54000000	     -1.07936330	      0.79216026	      1.98042534	      0.97126076	      1.00020249	     -0.28027535	     25.02856532	      2.13913530	      3.20385495	    -17.71050626	      8.67307766	     -3.37544927	      0.00000000	    -16.01865509	      2.30695960	     -0.83170305	    -20.97708758	     11.45542267	      3.53386398	      0.00000000	    -11.36196875	      1.29810274	    -10.10948628
      5.54500000	     -1.08868165	      0.60496029	      2.00383898	      0.97900003	      1.00063062	     -0.27991166	     25.03625365	      2.38968366	      3.19353302	    -18.50908382	      8.70164134	     -3.74356643	      0.00000000	    -15.49787225	      1.93487933	     -1.59399432	    -22.53380459	     10.31240612	      3.97594567	      0.00000000	    -11.27803590	      1.54358731	    -10.00242606
      5.55000000	     -1.11100174	      0.43117379	      2.02137751	      0.98670855	      1.00106621	     -0.27952231	     25.03364427	      2.62700837	      3.18134756	    -19.27253861	      8.84242739	     -4.01901160	      0.00000000	    -14.90918768	      1.55843814	     -2.36674835	    -24.14835937	      8.99224286	      4.32697724	      0.00000000	    -11.18254421	      1.76912817	     -9.91921527
      5.55500000	     -1.20053565	      0.30923438	      2.03896346	      0.99434829	      1.00141022	     -0.27907308	     25.08216840	      2.81546821	      3.14610242	    -19.99824713	      9.09498294	     -4.27039028	      0.00000000	    -14.18638203	      1.21190083	     -3.14480106	    -25.83074400	      7.49714994	      4.59342112	      0.00000000	    -11.01595656	      1.91964188	     -9.83297416
      5.56000000	     -1.14136107	      0.14054633	      2.07783952	      1.00198933	      1.00197794	     -0.27870374	     24.93105374	      3.02994169	      2.96395700	    -20.64828394	      9.47355004	     -4.38205781	      0.00000000	    -13.58691348	      0.79289960	     -3.90334189	    -27.52129861	      5.80645831	      4.72071081	      0.00000000	    -11.03193463	      2.14258867	     -9.73653950
      5.56500000	     -1.24821582	      0.00307128	      2.05896361	      1.00959068	      1.00231613	     -0.27812317	     24.93379325	      3.24512850	      2.90289673	    -21.26193540	      9.90034335	     -4.44936402	      0.00000000	    -12.76213421	      0.38457528	     -4.73141559	    -29.26146772	      3.97011748	      4.86101144	      0.00000000	    -10.84683397	      2.29209239	     -9.63091468
      5.57000000	     -1.21567304	     -0.17672303	      2.09728543	      1.01707210	      1.00290662	     -0.27764915	     24.74217556	      3.47812913	      2.72452088	    -21.77015304	     10.29516867	     -4.54682839	      0.00000000	    -12.04439142	     -0.08775934	     -5.44077724	    -30.99798277	      1.93136048	      4.79573495	      0.00000000	    -10.85956876	      2.51093945	     -9.53848123
      5.57500000	     -1.37050205	     -0.30378139	      2.08173946	      1.02448265	      1.00319796	     -0.27701342	     24.73588903	      3.68187901	      2.63802201	    -22.25711059	     10.77612746	     -4.60013176	      0.00000000	    -11.08610303	     -0.51522273	     -6.18945765	    -32.76727232	     -0.21613667	      4.65525204	      0.00000000	    -10.64647495	      2.63260093	     -9.40593328
      5.58000000	     -1.33943244	     -0.53698498	      2.13017116	      1.03185307	      1.00380183	     -0.27644611	     24.46964646	      3.97178435	      2.45760147	    -22.61241443	     11.17788703	     -4.70586932	      0.00000000	    -10.29981639	     -1.08245151	     -6.83084628	    -34.51548463	     -2.46337997	      4.42481414	      0.00000000	    -10.67072371	      2.89432840	     -9.30079907
      5.58500000	     -1.48480945	     -0.70517651	      2.14305018	      1.03914719	      1.00415231	     -0.27577883	     24.37135110	      4.21219815	      2.36940848	    -22.93281385	     11.61666237	     -4.81619240	      0.00000000	     -9.29883356	     -1.57611140	     -7.43820640	    -36.26278010	     -4.80126701	      4.06235617	      0.00000000	    -10.48090958	      3.05072304	     -9.18248330
      5.59000000	     -1.58818684	     -0.93470250	      2.19785611	      1.04629535	      1.00456683	     -0.27515384	     24.20300346	      4.49404171	      2.21284372	    -23.18583086	     12.01318703	     -4.91205864	      0.00000000	     -8.29758621	     -2.14616475	     -7.94701161	    -38.03193535	     -7.11378593	      3.62779889	      0.00000000	    -10.37108274	      3.28006350	     -9.07284588
      5.59500000	     -1.57621518	     -1.24216759	      2.24691580	      1.05343816	      1.00511919	     -0.27453084	     23.86861922	      4.85693241	      2.03045086	    -23.34652929	     12.40569211	     -4.98452535	      0.00000000	     -7.40881355	     -2.80728001	     -8.43464370	    -39.78538488	     -9.34632837	      3.15908953	      0.00000000	    -10.40052135	      3.60793779	     -8.91247263
      5.60000000	     -1.84576804	     -1.44062739	      2.33246629	      1.06031553	      1.00531760	     -0.27397065	     23.85215626	      5.07966099	      1.85579928	    -23.53181055	     12.79574574	     -5.02516599	      0.00000000	     -6.15760526	     -3.32006751	     -8.74266468	    -41.57024087	    -11.58120040	      2.51157363	      0.00000000	    -10.12076181	      3.78998977	     -8.84425711
      5.60500000	     -1.93246025	     -1.71761988	      2.43372318	      1.06727835	      1.00579220	     -0.27345237	     23.57676949	      5.38190859	      1.65903147	    -23.59139515	     13.16206613	     -5.08524481	      0.00000000	     -5.10762661	     -3.91571711	     -9.00115151	    -43.30097448	    -13.70768450	      1.82989085	      0.00000000	    -10.04002687	      4.07286205	     -8.74254322
      5.61000000	     -2.08408997	     -1.98331214	      2.55055916	      1.07407829	      1.00616955	     -0.27301430	     23.37380669	      5.65107373	      1.41976866	    -23.64280558	     13.54614919	     -5.07039093	      0.00000000	     -3.94764536	     -4.47660124	     -9.17752429	    -45.04552583	    -15.68753297	      1.04784487	      0.00000000	     -9.90398236	      4.34396724	     -8.65879105
      5.61500000	     -2.36124040	     -2.24327001	      2.66611103	      1.08077438	      1.00635832	     -0.27267792	     23.30800822	      5.88525213	      1.12507541	    -23.69531291	     13.98710410	     -4.89782638	      0.00000000	     -2.62398100	     -4.99509535	     -9.27212236	    -46.79859485	    -17.45448047	      0.22202492	      0.00000000	     -9.62028521	      4.61158921	     -8.55002059
      5.62000000	     -2.43822314	     -2.51775690	      2.80561610	      1.08739977	      1.00685042	     -0.27235100	     22.99116867	      6.15193456	      0.88537074	    -23.65830933	     14.33428194	     -4.87477483	      0.00000000	     -1.50562291	     -5.52471499	     -9.33209107	    -48.49440283	    -19.05539365	     -0.70186586	      0.00000000	     -9.59165911	      4.89776783	     -8.46447409
      5.62500000	     -2.60544138	     -2.77776957	      2.94467654	      1.09397033	      1.00722773	     -0.27209862	     22.76964655	      6.38187911	      0.58313450	    -23.61483137	     14.72649989	     -4.73882703	      0.00000000	     -0.27723522	     -5.99598950	     -9.30779740	    -50.16005634	    -20.42186987	     -1.64802014	      0.00000000	     -9.45234327	      5.16113708	     -8.38395243
      5.63000000	     -2.80756214	     -3.02407356	      3.09363879	      1.10047665	      1.00757167	     -0.27193911	     22.57853146	      6.58409125	      0.27781978	    -23.55617572	     15.11453466	     -4.56552789	      0.00000000	      1.00171782	     -6.41977873	     -9.22709688	    -51.78984456	    -21.51487807	     -2.57917656	      0.00000000	     -9.26460577	      5.41689436	     -8.29657333
      5.63500000	     -3.11292809	     -3.26049169	      3.20213987	      1.10692953	      1.00773088	     -0.27179292	     22.50486558	      6.77231166	     -0.01504130	    -23.51529242	     15.56146674	     -4.28360420	      0.00000000	      2.38970841	     -6.79060612	     -9.11073134	    -53.39360872	    -22.20691413	     -3.39323083	      0.00000000	     -8.95041677	      5.65240204	     -8.18458241
